<mxfile host="65bd71144e">
    <diagram id="5gINlFkIhNoZVklVpO-i" name="PÃ¡gina-1">
        <mxGraphModel dx="446" dy="427" grid="1" gridSize="10" guides="1" tooltips="1" connect="1" arrows="1" fold="1" page="1" pageScale="1" pageWidth="827" pageHeight="1169" math="0" shadow="0">
            <root>
                <mxCell id="0"/>
                <mxCell id="1" parent="0"/>
                <mxCell id="51" value="produtos" style="shape=table;startSize=30;container=1;collapsible=0;childLayout=tableLayout;fillColor=#e51400;strokeColor=#B20000;fontColor=#ffffff;" vertex="1" parent="1">
                    <mxGeometry x="110" y="80" width="240" height="280" as="geometry"/>
                </mxCell>
                <mxCell id="52" value="" style="shape=tableRow;horizontal=0;startSize=0;swimlaneHead=0;swimlaneBody=0;strokeColor=inherit;top=0;left=0;bottom=0;right=0;collapsible=0;dropTarget=0;fillColor=none;points=[[0,0.5],[1,0.5]];portConstraint=eastwest;" vertex="1" parent="51">
                    <mxGeometry y="30" width="240" height="42" as="geometry"/>
                </mxCell>
                <mxCell id="53" value="id" style="shape=partialRectangle;html=1;whiteSpace=wrap;connectable=0;strokeColor=inherit;overflow=hidden;fillColor=none;top=0;left=0;bottom=0;right=0;pointerEvents=1;" vertex="1" parent="52">
                    <mxGeometry width="90" height="42" as="geometry">
                        <mxRectangle width="90" height="42" as="alternateBounds"/>
                    </mxGeometry>
                </mxCell>
                <mxCell id="54" value="SERIAL PK" style="shape=partialRectangle;html=1;whiteSpace=wrap;connectable=0;strokeColor=inherit;overflow=hidden;fillColor=none;top=0;left=0;bottom=0;right=0;pointerEvents=1;" vertex="1" parent="52">
                    <mxGeometry x="90" width="150" height="42" as="geometry">
                        <mxRectangle width="150" height="42" as="alternateBounds"/>
                    </mxGeometry>
                </mxCell>
                <mxCell id="55" value="" style="shape=tableRow;horizontal=0;startSize=0;swimlaneHead=0;swimlaneBody=0;strokeColor=inherit;top=0;left=0;bottom=0;right=0;collapsible=0;dropTarget=0;fillColor=none;points=[[0,0.5],[1,0.5]];portConstraint=eastwest;" vertex="1" parent="51">
                    <mxGeometry y="72" width="240" height="41" as="geometry"/>
                </mxCell>
                <mxCell id="56" value="nome" style="shape=partialRectangle;html=1;whiteSpace=wrap;connectable=0;strokeColor=inherit;overflow=hidden;fillColor=none;top=0;left=0;bottom=0;right=0;pointerEvents=1;" vertex="1" parent="55">
                    <mxGeometry width="90" height="41" as="geometry">
                        <mxRectangle width="90" height="41" as="alternateBounds"/>
                    </mxGeometry>
                </mxCell>
                <mxCell id="57" value="VARCHAR(100)" style="shape=partialRectangle;html=1;whiteSpace=wrap;connectable=0;strokeColor=inherit;overflow=hidden;fillColor=none;top=0;left=0;bottom=0;right=0;pointerEvents=1;" vertex="1" parent="55">
                    <mxGeometry x="90" width="150" height="41" as="geometry">
                        <mxRectangle width="150" height="41" as="alternateBounds"/>
                    </mxGeometry>
                </mxCell>
                <mxCell id="58" value="" style="shape=tableRow;horizontal=0;startSize=0;swimlaneHead=0;swimlaneBody=0;strokeColor=inherit;top=0;left=0;bottom=0;right=0;collapsible=0;dropTarget=0;fillColor=none;points=[[0,0.5],[1,0.5]];portConstraint=eastwest;" vertex="1" parent="51">
                    <mxGeometry y="113" width="240" height="42" as="geometry"/>
                </mxCell>
                <mxCell id="59" value="marca" style="shape=partialRectangle;html=1;whiteSpace=wrap;connectable=0;strokeColor=inherit;overflow=hidden;fillColor=none;top=0;left=0;bottom=0;right=0;pointerEvents=1;" vertex="1" parent="58">
                    <mxGeometry width="90" height="42" as="geometry">
                        <mxRectangle width="90" height="42" as="alternateBounds"/>
                    </mxGeometry>
                </mxCell>
                <mxCell id="60" value="&lt;span style=&quot;color: rgb(0, 0, 0);&quot;&gt;VARCHAR&lt;/span&gt;(50)" style="shape=partialRectangle;html=1;whiteSpace=wrap;connectable=0;strokeColor=inherit;overflow=hidden;fillColor=none;top=0;left=0;bottom=0;right=0;pointerEvents=1;" vertex="1" parent="58">
                    <mxGeometry x="90" width="150" height="42" as="geometry">
                        <mxRectangle width="150" height="42" as="alternateBounds"/>
                    </mxGeometry>
                </mxCell>
                <mxCell id="61" value="" style="shape=tableRow;horizontal=0;startSize=0;swimlaneHead=0;swimlaneBody=0;strokeColor=inherit;top=0;left=0;bottom=0;right=0;collapsible=0;dropTarget=0;fillColor=none;points=[[0,0.5],[1,0.5]];portConstraint=eastwest;" vertex="1" parent="51">
                    <mxGeometry y="155" width="240" height="42" as="geometry"/>
                </mxCell>
                <mxCell id="62" value="preco" style="shape=partialRectangle;html=1;whiteSpace=wrap;connectable=0;strokeColor=inherit;overflow=hidden;fillColor=none;top=0;left=0;bottom=0;right=0;pointerEvents=1;" vertex="1" parent="61">
                    <mxGeometry width="90" height="42" as="geometry">
                        <mxRectangle width="90" height="42" as="alternateBounds"/>
                    </mxGeometry>
                </mxCell>
                <mxCell id="63" value="DECIMAL(10, 2)" style="shape=partialRectangle;html=1;whiteSpace=wrap;connectable=0;strokeColor=inherit;overflow=hidden;fillColor=none;top=0;left=0;bottom=0;right=0;pointerEvents=1;" vertex="1" parent="61">
                    <mxGeometry x="90" width="150" height="42" as="geometry">
                        <mxRectangle width="150" height="42" as="alternateBounds"/>
                    </mxGeometry>
                </mxCell>
                <mxCell id="64" value="" style="shape=tableRow;horizontal=0;startSize=0;swimlaneHead=0;swimlaneBody=0;strokeColor=inherit;top=0;left=0;bottom=0;right=0;collapsible=0;dropTarget=0;fillColor=none;points=[[0,0.5],[1,0.5]];portConstraint=eastwest;" vertex="1" parent="51">
                    <mxGeometry y="197" width="240" height="41" as="geometry"/>
                </mxCell>
                <mxCell id="65" value="categoria" style="shape=partialRectangle;html=1;whiteSpace=wrap;connectable=0;strokeColor=inherit;overflow=hidden;fillColor=none;top=0;left=0;bottom=0;right=0;pointerEvents=1;" vertex="1" parent="64">
                    <mxGeometry width="90" height="41" as="geometry">
                        <mxRectangle width="90" height="41" as="alternateBounds"/>
                    </mxGeometry>
                </mxCell>
                <mxCell id="66" value="VARCHAR(30)" style="shape=partialRectangle;html=1;whiteSpace=wrap;connectable=0;strokeColor=inherit;overflow=hidden;fillColor=none;top=0;left=0;bottom=0;right=0;pointerEvents=1;" vertex="1" parent="64">
                    <mxGeometry x="90" width="150" height="41" as="geometry">
                        <mxRectangle width="150" height="41" as="alternateBounds"/>
                    </mxGeometry>
                </mxCell>
                <mxCell id="67" value="" style="shape=tableRow;horizontal=0;startSize=0;swimlaneHead=0;swimlaneBody=0;strokeColor=inherit;top=0;left=0;bottom=0;right=0;collapsible=0;dropTarget=0;fillColor=none;points=[[0,0.5],[1,0.5]];portConstraint=eastwest;" vertex="1" parent="51">
                    <mxGeometry y="238" width="240" height="42" as="geometry"/>
                </mxCell>
                <mxCell id="68" value="estoque" style="shape=partialRectangle;html=1;whiteSpace=wrap;connectable=0;strokeColor=inherit;overflow=hidden;fillColor=none;top=0;left=0;bottom=0;right=0;pointerEvents=1;" vertex="1" parent="67">
                    <mxGeometry width="90" height="42" as="geometry">
                        <mxRectangle width="90" height="42" as="alternateBounds"/>
                    </mxGeometry>
                </mxCell>
                <mxCell id="69" value="INT" style="shape=partialRectangle;html=1;whiteSpace=wrap;connectable=0;strokeColor=inherit;overflow=hidden;fillColor=none;top=0;left=0;bottom=0;right=0;pointerEvents=1;" vertex="1" parent="67">
                    <mxGeometry x="90" width="150" height="42" as="geometry">
                        <mxRectangle width="150" height="42" as="alternateBounds"/>
                    </mxGeometry>
                </mxCell>
            </root>
        </mxGraphModel>
    </diagram>
</mxfile>